# xmcd
#
# Track frame offsets:
#	150
#	17687
#	32346
#	48556
#	61955
#	75190
#	87733
#	99809
#	112017
#	123545
#	136586
#	147902
#	168912
#	186706
#	197202
#	217309
#	230865
#	243305
#	252520
#	262391
#
# Disc length: 3660 seconds
#
# Revision: 1
# Processed by: cddbd v1.4PL0 Copyright (c) Steve Scherf et al.
# Submitted via: audiograbber 1.81.02
#
DISCID=2b0e4a14
DTITLE=multiple - 100% Hits Soul cd1
DYEAR=1900
DGENRE=Soul
TTITLE0=Curtis Mayfied - Superfly
TTITLE1=Al Green - Let's stay togerther
TTITLE2=Nina Simone - My baby just cares for me
TTITLE3=The Temptations - Papa was a Rollin' Stone
TTITLE4=Ben E. King - Stand by me
TTITLE5=Sam and Dave - Soul man
TTITLE6=Eddie Floyd - Knock on wood
TTITLE7=Supremes - Baby love
TTITLE8=Martha Reeves - Dancing in the street
TTITLE9=Percy Sledge - When a man loves a woman
TTITLE10=The Mar Keys - Last night
TTITLE11=James Brown - It's man's man's world
TTITLE12=Ike and Tina Turner - River deep mountain high
TTITLE13=Etta James - Tell mama
TTITLE14=Bobby Womack - That's the way I fell about cha
TTITLE15=Kink Floyd - Groove me
TTITLE16=Archie Bell and The Drells - Tighten up
TTITLE17=Gladys Knight - Every beat of my heart
TTITLE18=The Drifters - Save the last dance for me
TTITLE19=Brook Benton - Rainy night in Georgia
EXTD=
EXTT0=
EXTT1=
EXTT2=
EXTT3=
EXTT4=
EXTT5=
EXTT6=
EXTT7=
EXTT8=
EXTT9=
EXTT10=
EXTT11=
EXTT12=
EXTT13=
EXTT14=
EXTT15=
EXTT16=
EXTT17=
EXTT18=
EXTT19=
PLAYORDER=
